<?xml version="1.0" encoding="utf-8"?>
<!-- Generator: Adobe Illustrator 16.0.0, SVG Export Plug-In . SVG Version: 6.00 Build 0)  -->
<!DOCTYPE svg PUBLIC "-//W3C//DTD SVG 1.1//EN" "http://www.w3.org/Graphics/SVG/1.1/DTD/svg11.dtd">
<svg version="1.1" id="Layer_1" xmlns="http://www.w3.org/2000/svg" xmlns:xlink="http://www.w3.org/1999/xlink" x="0px" y="0px"
	 viewBox="0 0 40 40" enable-background="new 0 0 40 40" xml:space="preserve">
<g>
	<g>
		<path fill="#626366" d="M21.189,14.915c5.739,0,10.408,4.67,10.408,10.409c0,5.739-4.669,10.409-10.408,10.409
			s-10.408-4.67-10.408-10.409C10.781,19.584,15.45,14.915,21.189,14.915z M7.17,25.324c0,7.731,6.289,14.02,14.02,14.02
			s14.02-6.289,14.02-14.02c0-7.73-6.289-14.021-14.02-14.021S7.17,17.593,7.17,25.324z"/>
	</g>
</g>
<g>
	<g>
		<path fill="#626366" d="M26.094,26.039c0,2.703-2.199,4.904-4.904,4.904c-2.703,0-4.903-2.201-4.903-4.904h-2.407
			c0,4.031,3.279,7.312,7.311,7.312s7.312-3.281,7.312-7.312H26.094z"/>
	</g>
</g>
<g>
	<circle fill="#626366" cx="16.55" cy="22.115" r="2.408"/>
</g>
<g>
	<circle fill="#626366" cx="25.78" cy="22.115" r="2.408"/>
</g>
<g>
	<path fill="#626366" d="M20.844,13.109c-6.144,0-12.464,9.607-12.464,9.607l-4.815-7.524l7.825,0.903l-0.602-8.427l7.223,4.815
		l3.009-8.427l3.611,9.028l6.02-4.815l-1.504,7.224l7.523-2.408l-3.611,8.427C33.059,21.512,26.988,13.109,20.844,13.109z"/>
	<path fill="#626366" d="M20.844,11.906c-6.716,0-13.196,9.735-13.47,10.148l2.02,0.013l-4.814-7.523l-1.152,1.845l7.825,0.902
		l1.442,0.167l-0.104-1.448l-0.603-8.427L10.12,8.67l7.223,4.814l1.283,0.856l0.519-1.453l3.01-8.427l-2.252,0.042l3.611,9.029
		l0.604,1.507l1.266-1.014l6.02-4.815l-1.93-1.186l-1.506,7.223l-0.42,2.022l1.966-0.631l7.524-2.407l-1.474-1.62l-3.611,8.427
		l2.082-0.231C33.771,20.444,27.527,11.906,20.844,11.906z M34.164,21.986l3.612-8.427l1.039-2.424l-2.513,0.804l-7.523,2.408
		l1.545,1.392l1.505-7.223l0.683-3.276l-2.613,2.09l-6.019,4.815l1.87,0.494L22.139,3.61l-1.182-2.954l-1.07,2.997l-3.01,8.427
		l1.802-0.598l-7.224-4.815L9.412,5.304l0.175,2.45l0.602,8.427l1.339-1.281l-7.824-0.903l-2.519-0.29l1.366,2.135l4.815,7.524
		l1,1.562l1.02-1.549c1.662-2.521,6.96-9.065,11.458-9.065c5.453,0,11.182,7.826,11.238,7.905l1.246,1.72L34.164,21.986z"/>
</g>
</svg>
